#!OML:ASF H:\Martial Arts Walks\Project 1\Capture day 1\Session 1\male.ASF
:FULLY-SPECIFIED
:DEGREES
1479
root 0.531507 14.4817 11.0232 6.42598 -0.249856 1.84736
lowerback 18.6268 4.98493 -8.77111
upperback 0.409751 4.60614 -0.810316
thorax -10.6653 2.58805 2.78255
lowerneck -1.25835 -6.08901 -7.16473
upperneck -1.83728 -8.01151 10.1561
head 0.411891 -3.99265 4.52123
rclavicle -7.90169e-015 2.46493e-014
rhumerus 39.4897 12.32 -48.4303
rradius 51.5136
rwrist 7.55511
rhand -9.6896 -30.7076
rfingers 7.12502
rthumb 16.2825 -60.0439
lclavicle -7.90169e-015 2.46493e-014
lhumerus -60.8238 -26.961 105.377
lradius 99.9279
lwrist 47.4385
lhand -9.78812 42.5525
lfingers 7.12502
lthumb 16.1877 71.8966
rfemur -62.2098 -8.50043 27.3303
rtibia 87.6495
rfoot -14.7288 -14.5841
rtoes -6.38112
lfemur -38.9085 9.88527 -25.9209
ltibia 74.22
lfoot -25.3411 30.5895
ltoes -12.4453
1480
root 0.540009 14.4767 10.8034 6.83167 -0.643351 1.54761
lowerback 18.4638 4.98448 -8.57066
upperback 0.312068 4.65795 -0.848037
thorax -10.6699 2.60439 2.61986
lowerneck -1.31586 -6.03408 -7.09243
upperneck -1.77979 -7.93942 10.2308
head 0.434407 -3.95526 4.53306
rclavicle 1.98785e-016 1.2921e-014
rhumerus 39.5463 12.4578 -48.817
rradius 51.942
rwrist 7.10583
rhand -9.57323 -30.7975
rfingers 7.12502
rthumb 16.3946 -60.1247
lclavicle 1.98785e-016 1.2921e-014
lhumerus -60.3615 -27.1265 105.747
lradius 99.4165
lwrist 46.6894
lhand -10.422 43.0515
lfingers 7.12502
lthumb 15.5773 72.4442
rfemur -60.4972 -9.05633 27.5689
rtibia 90.6031
rfoot -14.8983 -15.2186
rtoes -5.75613
lfemur -40.749 10.7062 -25.9702
ltibia 74.7577
lfoot -24.9562 29.9884
ltoes -11.6738
1481
root 0.546193 14.4796 10.5876 7.21376 -0.957102 1.25688
lowerback 18.2994 4.98739 -8.37291
upperback 0.211701 4.71413 -0.878105
thorax -10.6774 2.62326 2.46609
lowerneck -1.38119 -6.01222 -7.03304
upperneck -1.68353 -7.91398 10.2988
head 0.475678 -3.94043 4.54257
rclavicle 3.29983e-014 -4.37326e-015
rhumerus 39.5426 12.5927 -49.1545
rradius 52.3643
rwrist 6.65299
rhand -9.53006 -30.8521
rfingers 7.12502
rthumb 16.4361 -60.1759
lclavicle 3.29983e-014 -4.37326e-015
lhumerus -59.8989 -27.3086 106.175
lradius 98.8992
lwrist 45.869
lhand -11.0665 43.5537
lfingers 7.12502
lthumb 14.9564 72.9937
rfemur -58.2981 -9.79234 27.64
rtibia 92.9594
rfoot -14.8431 -16.07
rtoes -4.48563
lfemur -42.4606 11.4928 -26.0309
ltibia 75.1113
lfoot -24.508 29.3279
ltoes -10.8749
1482
root 0.550439 14.4949 10.3763 7.57075 -1.20962 0.960808
lowerback 18.14 4.99761 -8.15273
upperback 0.105 4.7844 -0.900298
thorax -10.6946 2.64812 2.30405
lowerneck -1.43724 -6.01974 -6.98964
upperneck -1.57476 -7.9294 10.3562
head 0.523505 -3.94592 4.55022
rclavicle -1.0138e-014 -1.31198e-014
rhumerus 39.4862 12.7303 -49.4137
rradius 52.7783
rwrist 6.19593
rhand -9.51608 -30.835
rfingers 7.12502
rthumb 16.4496 -60.1576
lclavicle -1.0138e-014 -1.31198e-014
lhumerus -59.4396 -27.5269 106.65
lradius 98.3742
lwrist 45.0023
lhand -11.6439 43.9739
lfingers 7.12502
lthumb 14.4001 73.4543
rfemur -55.6282 -10.6423 27.5219
rtibia 94.6808
rfoot -14.5728 -16.9562
rtoes -2.51356
lfemur -44.0119 12.242 -26.0762
ltibia 75.256
lfoot -23.94 28.6329
ltoes -10.2017
1483
root 0.552635 14.5244 10.1702 7.90496 -1.40934 0.646218
lowerback 17.9866 5.01354 -7.8946
upperback -0.00824334 4.87021 -0.911246
thorax -10.7209 2.67887 2.12836
lowerneck -1.48131 -6.04586 -6.96913
upperneck -1.47607 -7.96965 10.4055
head 0.568975 -3.96403 4.55922
rclavicle -1.04362e-014 -2.42517e-014
rhumerus 39.3992 12.8749 -49.5803
rradius 53.1843
rwrist 5.73422
rhand -9.48237 -30.7292
rfingers 7.12502
rthumb 16.4821 -60.0491
lclavicle -1.04362e-014 -2.42517e-014
lhumerus -58.9901 -27.7809 107.161
lradius 97.8587
lwrist 44.1266
lhand -12.1129 44.2795
lfingers 7.12502
lthumb 13.9482 73.7917
rfemur -52.5355 -11.5324 27.2136
rtibia 95.7621
rfoot -14.122 -17.7494
rtoes 0.119016
lfemur -45.3955 12.952 -26.0831
ltibia 75.2011
lfoot -23.2389 27.9113
ltoes -9.75585
1484
root 0.553107 14.5618 9.97046 8.23329 -1.56915 0.324794
lowerback 17.805 5.03456 -7.60636
upperback -0.128825 4.97195 -0.915121
thorax -10.7379 2.71571 1.94114
lowerneck -1.50371 -6.08234 -6.9726
upperneck -1.40648 -8.02267 10.4454
head 0.603008 -3.98924 4.57042
rclavicle 1.99779e-014 -1.51076e-014
rhumerus 39.3088 13.0301 -49.6369
rradius 53.578
rwrist 5.25079
rhand -9.3793 -30.5301
rfingers 7.12502
rthumb 16.5813 -59.8417
lclavicle 1.99779e-014 -1.51076e-014
lhumerus -58.5575 -28.074 107.705
lradius 97.3651
lwrist 43.2738
lhand -12.4985 44.3865
lfingers 7.12502
lthumb 13.5766 73.9239
rfemur -49.1292 -12.3936 26.7132
rtibia 96.2542
rfoot -13.4795 -18.4185
rtoes 3.26138
lfemur -46.6526 13.6166 -26.0665
ltibia 75.0025
lfoot -22.4585 27.1604
ltoes -9.49662
1485
root 0.551932 14.5991 9.77676 8.57818 -1.69828 0.0268487
lowerback 17.56 5.05746 -7.32055
upperback -0.253856 5.08074 -0.920494
thorax -10.7233 2.75566 1.75664
lowerneck -1.52314 -6.12084 -6.99503
upperneck -1.36708 -8.07624 10.4742
head 0.627099 -4.01504 4.5819
rclavicle 8.40859e-014 -2.62396e-014
rhumerus 39.251 13.1957 -49.5852
rradius 53.9568
rwrist 4.73351
rhand -9.17611 -30.2604
rfingers 7.12502
rthumb 16.7769 -59.5555
lclavicle 8.40859e-014 -2.62396e-014
lhumerus -58.1383 -28.3961 108.265
lradius 96.9189
lwrist 42.4674
lhand -12.7709 44.3358
lfingers 7.12502
lthumb 13.314 73.8905
rfemur -45.5378 -13.1773 26.026
rtibia 96.2326
rfoot -12.6686 -19.0092
rtoes 6.6631
lfemur -47.8556 14.2245 -26.0683
ltibia 74.734
lfoot -21.6407 26.3919
ltoes -9.38632
1486
root 0.549183 14.6302 9.58814 8.96113 -1.8094 -0.233872
lowerback 17.2251 5.08149 -7.05465
upperback -0.388851 5.19324 -0.931727
thorax -10.669 2.79824 1.58282
lowerneck -1.52701 -6.15436 -7.04103
upperneck -1.36534 -8.12096 10.5009
head 0.636328 -4.03714 4.59878
rclavicle 4.14466e-014 -2.62396e-014
rhumerus 39.2546 13.3819 -49.4216
rradius 54.3124
rwrist 4.15674
rhand -8.87244 -29.9666
rfingers 7.12502
rthumb 17.0692 -59.2367
lclavicle 4.14466e-014 -2.62396e-014
lhumerus -57.7435 -28.7375 108.839
lradius 96.5444
lwrist 41.7135
lhand -12.9782 44.1932
lfingers 7.12502
lthumb 13.1142 73.7608
rfemur -41.8658 -13.8497 25.1868
rtibia 95.7602
rfoot -11.7431 -19.6041
rtoes 10.047
lfemur -49.0764 14.7762 -26.1167
ltibia 74.4591
lfoot -20.8312 25.6119
ltoes -9.3456
1487
root 0.545244 14.6527 9.40361 9.38639 -1.93116 -0.441254
lowerback 16.7951 5.1124 -6.82887
upperback -0.531497 5.31207 -0.956299
thorax -10.5706 2.8456 1.42308
lowerneck -1.54262 -6.18481 -7.0988
upperneck -1.38156 -8.15951 10.5182
head 0.641322 -4.05599 4.61463
rclavicle -4.51241e-014 -1.31198e-014
rhumerus 39.3519 13.5931 -49.1438
rradius 54.6351
rwrist 3.49548
rhand -8.50828 -29.719
rfingers 7.12502
rthumb 17.4197 -58.9584
lclavicle -4.51241e-014 -1.31198e-014
lhumerus -57.3743 -29.0878 109.413
lradius 96.2672
lwrist 40.9908
lhand -13.1616 43.9637
lfingers 7.12502
lthumb 12.9374 73.5426
rfemur -38.1776 -14.388 24.2182
rtibia 94.8768
rfoot -10.8187 -20.2796
rtoes 13.151
lfemur -50.3462 15.2856 -26.2421
ltibia 74.2132
lfoot -20.0797 24.8329
ltoes -9.27739
1488
root 0.540423 14.6666 9.22239 9.83607 -2.08146 -0.591176
lowerback 16.2962 5.15471 -6.64551
upperback -0.681895 5.43997 -0.997925
thorax -10.4429 2.89928 1.27249
lowerneck -1.55978 -6.21089 -7.17107
upperneck -1.40995 -8.19107 10.5366
head 0.642745 -4.07137 4.63419
rclavicle 2.06736e-014 3.57812e-015
rhumerus 39.5618 13.8356 -48.7585
rradius 54.9045
rwrist 2.74636
rhand -8.13325 -29.5727
rfingers 7.12502
rthumb 17.7806 -58.7798
lclavicle 2.06736e-014 3.57812e-015
lhumerus -57.044 -29.4372 109.983
lradius 96.1119
lwrist 40.2104
lhand -13.1137 44.0123
lfingers 7.12502
lthumb 12.9836 73.5883
rfemur -34.4918 -14.8005 23.1475
rtibia 93.5974
rfoot -9.98131 -21.1089
rtoes 15.864
lfemur -51.6531 15.7669 -26.4507
ltibia 74.009
lfoot -19.3874 24.0771
ltoes -9.15805
1489
root 0.535239 14.6731 9.04398 10.2853 -2.29085 -0.69906
lowerback 15.7612 5.21608 -6.48665
upperback -0.83637 5.58785 -1.05867
thorax -10.2995 2.96341 1.11427
lowerneck -1.58336 -6.23481 -7.24507
upperneck -1.4383 -8.21929 10.5516
head 0.644939 -4.08488 4.65273
rclavicle 2.33572e-014 -7.95139e-015
rhumerus 39.9002 14.1092 -48.2759
rradius 55.1009
rwrist 1.92356
rhand -7.8121 -29.5744
rfingers 7.12502
rthumb 18.0896 -58.7531
lclavicle 2.33572e-014 -7.95139e-015
lhumerus -56.7567 -29.7826 110.534
lradius 96.0942
lwrist 39.2466
lhand -13.0398 44.0274
lfingers 7.12502
lthumb 13.0548 73.5988
rfemur -30.8118 -15.0903 22.0097
rtibia 91.9273
rfoot -9.35562 -22.1165
rtoes 18.0076
lfemur -52.9696 16.2517 -26.7248
ltibia 73.8482
lfoot -18.7642 23.3532
ltoes -8.95402
1490
root 0.530492 14.6729 8.86746 10.7211 -2.57908 -0.786586
lowerback 15.2142 5.29908 -6.32147
upperback -0.994133 5.76322 -1.13821
thorax -10.1501 3.04001 0.928643
lowerneck -1.61529 -6.25486 -7.31265
upperneck -1.45526 -8.24263 10.5615
head 0.651308 -4.0956 4.66783
rclavicle -1.71949e-014 5.56597e-015
rhumerus 40.3781 14.4072 -47.7168
rradius 55.1982
rwrist 1.07517
rhand -7.5753 -29.7158
rfingers 7.12502
rthumb 18.3174 -58.8734
lclavicle -1.71949e-014 5.56597e-015
lhumerus -56.5037 -30.1262 111.054
lradius 96.2181
lwrist 37.9194
lhand -12.8914 43.9992
lfingers 7.12502
lthumb 13.1979 73.5615
rfemur -27.1666 -15.2811 20.8369
rtibia 89.8853
rfoot -8.97266 -23.2708
rtoes 19.7908
lfemur -54.2856 16.7566 -27.0408
ltibia 73.7346
lfoot -18.1951 22.6761
ltoes -8.68118
